<?xml version="1.0" encoding="iso-8859-1"?>
<!-- Generator: Adobe Illustrator 19.0.0, SVG Export Plug-In . SVG Version: 6.00 Build 0)  -->
<svg version="1.1" id="Layer_1" xmlns="http://www.w3.org/2000/svg" xmlns:xlink="http://www.w3.org/1999/xlink" x="50px" y="0px"
	 viewBox="0 0 504.115 504.115" style="enable-background:new 0 0 504.115 504.115;" xml:space="preserve">
<path style="fill:#92A4A5;" d="M436.76,206.316c0,102.014-82.708,150.26-184.706,150.26c-102.006,0-184.706-48.246-184.706-150.26
	c0-102.006,82.7-152.19,184.706-152.19C354.052,54.126,436.76,104.31,436.76,206.316z"/>
<path style="fill:#C7D2D3;" d="M436.76,206.316c0,102.014-82.708,128.354-184.706,128.354c-102.006,0-184.706-26.34-184.706-128.354
	c0-102.006,82.7-184.706,184.706-184.706C354.052,21.61,436.76,104.31,436.76,206.316z"/>
<g>
	<path style="fill:#AEB9BA;" d="M436.76,206.316c0,102.014-82.708,128.354-184.706,128.354
		c-102.006,0-184.706-26.34-184.706-128.354c0-102.006,82.7-152.19,184.706-152.19C354.052,54.126,436.76,104.31,436.76,206.316z"/>
	<path style="fill:#AEB9BA;" d="M251.825,247.166c0,69.537-56.359,87.497-125.905,87.497C56.367,334.663,0,316.704,0,247.166
		s56.367-125.913,125.92-125.913C195.458,121.253,251.825,177.629,251.825,247.166z"/>
	<path style="fill:#AEB9BA;" d="M504.115,247.166c0,69.537-56.367,87.497-125.921,87.497s-125.913-17.959-125.913-87.497
		s56.359-125.913,125.913-125.913S504.115,177.629,504.115,247.166z"/>
</g>
<path style="fill:#09516D;" d="M193.867,164.813c0,13.533-10.988,12.256-24.505,12.256c-13.517,0-24.481,1.276-24.481-12.256
	c0-13.525,10.965-24.481,24.481-24.481C182.879,140.331,193.867,151.296,193.867,164.813z"/>
<path style="fill:#082130;" d="M193.867,164.813c0,13.533-10.988,12.256-24.505,12.256c-13.517,0-24.481,1.276-24.481-12.256
	c0-13.525,10.965-14.588,24.481-14.588C182.879,150.225,193.867,151.296,193.867,164.813z"/>
<path style="fill:#09516D;" d="M359.227,164.813c0,13.533-10.98,12.256-24.489,12.256c-13.533,0-24.497,1.276-24.497-12.256
	c0-13.525,10.973-24.481,24.497-24.481C348.255,140.331,359.227,151.296,359.227,164.813z"/>
<path style="fill:#082130;" d="M359.227,164.813c0,13.533-10.98,12.256-24.489,12.256c-13.533,0-24.497,1.276-24.497-12.256
	c0-13.525,10.973-14.588,24.497-14.588C348.255,150.233,359.227,151.296,359.227,164.813z"/>
<path style="fill:#AF3A6A;" d="M296.574,195.375c0,11.162-19.936,20.212-44.52,20.212c-24.6,0-44.52-9.051-44.52-20.212
	c0-11.154,19.921,1.355,44.52,1.355C276.638,196.73,296.574,184.222,296.574,195.375z"/>
<path style="fill:#821647;" d="M252.054,196.73c-19.873,0-36.675-8.153-42.409-5.404c5.545,8.287,22.315,14.36,42.409,14.36
	c20.086,0,36.864-6.073,42.401-14.36C288.721,188.577,271.911,196.73,252.054,196.73z"/>
<g>
	<path style="fill:#C7D2D3;" d="M112.128,207.466c0,8.2-16.778-2.119-37.463-2.119c-20.677,0-37.463,10.319-37.463,2.119
		c0-8.2,16.786-14.84,37.463-14.84C95.35,192.634,112.128,199.266,112.128,207.466z"/>
	<path style="fill:#C7D2D3;" d="M466.889,207.466c0,8.2-16.778-2.119-37.471-2.119c-20.677,0-37.447,10.319-37.447,2.119
		c0-8.2,16.77-14.84,37.447-14.84C450.119,192.634,466.889,199.266,466.889,207.466z"/>
	<path style="fill:#C7D2D3;" d="M200.121,111.612c0,5.341-10.933-1.378-24.395-1.378c-13.454,0-24.387,6.719-24.387,1.378
		c0-5.341,10.933-9.665,24.387-9.665C189.196,101.955,200.121,106.279,200.121,111.612z"/>
	<path style="fill:#C7D2D3;" d="M352.752,111.612c0,5.341-10.933-1.378-24.395-1.378c-13.454,0-24.387,6.719-24.387,1.378
		c0-5.341,10.933-9.665,24.387-9.665C341.819,101.955,352.752,106.279,352.752,111.612z"/>
</g>
<path style="fill:#5BA9C1;" d="M107.63,405.988c0,6.814-5.514,12.335-12.327,12.335s-12.351-5.522-12.351-12.335
	c0-6.814,5.537-35.06,12.351-35.06S107.63,399.167,107.63,405.988z"/>
<path style="fill:#2D99B2;" d="M95.303,370.92c6.814,0,12.327,28.247,12.327,35.06c0,6.814-5.514,12.335-12.327,12.335"/>
<path style="fill:#5BA9C1;" d="M170.346,405.988c0,6.814-5.537,12.335-12.351,12.335s-12.335-5.522-12.335-12.335
	c0-6.814,5.522-35.06,12.335-35.06S170.346,399.167,170.346,405.988z"/>
<path style="fill:#2D99B2;" d="M157.995,370.92c6.814,0,12.351,28.247,12.351,35.06c0,6.814-5.537,12.335-12.351,12.335"/>
<path style="fill:#5BA9C1;" d="M233.039,405.988c0,6.814-5.522,12.335-12.335,12.335s-12.343-5.522-12.343-12.335
	c0-6.814,5.53-35.06,12.343-35.06S233.039,399.167,233.039,405.988z"/>
<path style="fill:#2D99B2;" d="M220.704,370.92c6.814,0,12.335,28.247,12.335,35.06c0,6.814-5.522,12.335-12.335,12.335"/>
<path style="fill:#5BA9C1;" d="M295.747,405.988c0,6.814-5.522,12.335-12.343,12.335c-6.821,0-12.327-5.522-12.327-12.335
	c0-6.814,5.506-35.06,12.327-35.06C290.225,370.928,295.747,399.167,295.747,405.988z"/>
<path style="fill:#2D99B2;" d="M283.396,370.92c6.821,0,12.343,28.247,12.343,35.06c0,6.814-5.522,12.335-12.343,12.335"/>
<path style="fill:#5BA9C1;" d="M358.439,405.988c0,6.814-5.506,12.335-12.319,12.335c-6.814,0-12.351-5.522-12.351-12.335
	c0-6.814,5.537-35.06,12.351-35.06C352.933,370.928,358.439,399.167,358.439,405.988z"/>
<path style="fill:#2D99B2;" d="M346.112,370.92c6.814,0,12.319,28.247,12.319,35.06c0,6.814-5.506,12.335-12.319,12.335"/>
<path style="fill:#5BA9C1;" d="M421.163,405.988c0,6.814-5.537,12.335-12.351,12.335c-6.814,0-12.335-5.522-12.335-12.335
	c0-6.814,5.522-35.06,12.335-35.06C415.626,370.928,421.163,399.167,421.163,405.988z"/>
<path style="fill:#2D99B2;" d="M408.804,370.92c6.814,0,12.351,28.247,12.351,35.06c0,6.814-5.537,12.335-12.351,12.335"/>
<path style="fill:#5BA9C1;" d="M138.98,470.17c0,6.814-5.506,12.335-12.32,12.335c-6.814,0-12.351-5.522-12.351-12.335
	c0-6.814,5.537-35.06,12.351-35.06C133.474,435.109,138.98,463.356,138.98,470.17z"/>
<path style="fill:#2D99B2;" d="M126.653,435.109c6.814,0,12.319,28.247,12.319,35.06c0,6.814-5.506,12.335-12.319,12.335"/>
<path style="fill:#5BA9C1;" d="M201.697,470.17c0,6.814-5.537,12.335-12.351,12.335s-12.335-5.522-12.335-12.335
	c0-6.814,5.522-35.06,12.335-35.06S201.697,463.356,201.697,470.17z"/>
<path style="fill:#2D99B2;" d="M189.345,435.109c6.814,0,12.351,28.247,12.351,35.06c0,6.814-5.537,12.335-12.351,12.335"/>
<path style="fill:#5BA9C1;" d="M264.389,470.17c0,6.814-5.522,12.335-12.335,12.335s-12.335-5.522-12.335-12.335
	c0-6.814,5.522-35.06,12.335-35.06C258.867,435.109,264.389,463.356,264.389,470.17z"/>
<path style="fill:#2D99B2;" d="M252.054,435.109c6.814,0,12.335,28.247,12.335,35.06c0,6.814-5.522,12.335-12.335,12.335"/>
<path style="fill:#5BA9C1;" d="M327.097,470.17c0,6.814-5.522,12.335-12.335,12.335c-6.821,0-12.335-5.522-12.335-12.335
	c0-6.814,5.514-35.06,12.335-35.06C321.575,435.109,327.097,463.356,327.097,470.17z"/>
<path style="fill:#2D99B2;" d="M314.762,435.109c6.814,0,12.335,28.247,12.335,35.06c0,6.814-5.522,12.335-12.335,12.335"/>
<path style="fill:#5BA9C1;" d="M389.797,470.17c0,6.814-5.514,12.335-12.327,12.335c-6.814,0-12.351-5.522-12.351-12.335
	c0-6.814,5.537-35.06,12.351-35.06C384.284,435.109,389.797,463.356,389.797,470.17z"/>
<path style="fill:#2D99B2;" d="M377.47,435.109c6.814,0,12.327,28.247,12.327,35.06c0,6.814-5.514,12.335-12.327,12.335"/>
<g>
</g>
<g>
</g>
<g>
</g>
<g>
</g>
<g>
</g>
<g>
</g>
<g>
</g>
<g>
</g>
<g>
</g>
<g>
</g>
<g>
</g>
<g>
</g>
<g>
</g>
<g>
</g>
<g>
</g>
</svg>
